<svg xmlns="http://www.w3.org/2000/svg" viewBox="0 0 626.21 125.63"><defs><style>.cls-1{fill:none;stroke:#000;stroke-miterlimit:10;stroke-width:14px;}</style></defs><g id="Layer_2" data-name="Layer 2"><g id="Layer_1-2" data-name="Layer 1"><path class="cls-1" d="M50.57,66.5V41.91H7V99.63c46.15,44.17,85.35-2.5,85.35-2.5V7H3.8"/><path d="M203.39,18.64V96.86a11.08,11.08,0,0,0,.22,2.45,3.12,3.12,0,0,0,1.11,1.71,7.54,7.54,0,0,0,2.53,1.27,30.24,30.24,0,0,0,4.61,1,2.4,2.4,0,0,1,2.23,2.53c0,.3,0,.75-.07,1.34a9.6,9.6,0,0,1-.23,1.49q-4.75-.3-10.18-.52t-9.59-.23q-4.32,0-9.59.23t-10,.52a4.12,4.12,0,0,1-.37-1.49c-.06-.59-.08-1-.08-1.34a3.61,3.61,0,0,1,.37-1.71c.25-.44.92-.77,2-1,3.67-.5,6-1.17,6.92-2s1.41-2.26,1.41-4.24V18.64H171.56a26.13,26.13,0,0,0-7.06.82A14.25,14.25,0,0,0,159.44,22a17.19,17.19,0,0,0-3.86,4.46,61.5,61.5,0,0,0-3.5,6.61,2.21,2.21,0,0,1-2.23,1.34,7,7,0,0,1-2.08-.37,11.4,11.4,0,0,1-1.78-.67c.69-2.38,1.28-4.48,1.78-6.32s.89-3.64,1.19-5.42q.58-3.44.89-6.1a17.54,17.54,0,0,1,.75-3.87A2.32,2.32,0,0,1,153,10.31q1.64,0,6.47.45t11.68.45h57.13c4.46,0-.9.72,2.32.42a31.79,31.79,0,0,1,4.66-.22c1.3,0,1.83-.28,2.33.62a13.18,13.18,0,0,1,.55,3.49,49.36,49.36,0,0,0,1,6.1q.45,2.67,1.12,5.42c.45,1.84,1.06,3.94,1.86,6.32-.5.2-1.12.43-1.86.67a6.33,6.33,0,0,1-2,.37,2.52,2.52,0,0,1-2.38-1.34,61.58,61.58,0,0,0-3.49-6.61A17.22,17.22,0,0,0,228.44,22a14.2,14.2,0,0,0-5.05-2.53,25.55,25.55,0,0,0-6.92-.82Z"/><path d="M313.19,96.86a11.72,11.72,0,0,0,.22,2.45A3,3,0,0,0,314.6,101a8.44,8.44,0,0,0,2.83,1.27,38.82,38.82,0,0,0,5,1c1,.2,1.49,1,1.49,2.53,0,.3,0,.75-.08,1.34a9.73,9.73,0,0,1-.22,1.49q-4.75-.3-10.11-.52t-9.52-.23q-4.31,0-9.74.23t-10.18.52a3.32,3.32,0,0,1-.3-1.49v-1.34c0-1.58.49-2.43,1.49-2.53a38.82,38.82,0,0,0,5-1A7.51,7.51,0,0,0,293,101a3.59,3.59,0,0,0,1.19-1.71,8.39,8.39,0,0,0,.3-2.45V61.91H254.3v35a11,11,0,0,0,.23,2.45,3,3,0,0,0,1.19,1.71,8.28,8.28,0,0,0,2.82,1.27,38.82,38.82,0,0,0,5,1c1,.2,1.49,1,1.49,2.53,0,.3,0,.75-.07,1.34a9.6,9.6,0,0,1-.23,1.49q-4.75-.3-10.26-.52t-9.66-.23q-4.17,0-9.52.23t-10.11.52a3.32,3.32,0,0,1-.3-1.49v-1.34c0-1.58.5-2.43,1.49-2.53a38.82,38.82,0,0,0,5-1,7.44,7.44,0,0,0,2.75-1.27,3.52,3.52,0,0,0,1.19-1.71,8.39,8.39,0,0,0,.3-2.45V22.36a8.51,8.51,0,0,0-.3-2.46,3.54,3.54,0,0,0-1.19-1.7,7.44,7.44,0,0,0-2.75-1.27,40.37,40.37,0,0,0-5-1c-1-.29-1.49-1.13-1.49-2.52V12.1c0-.6-1.62-.29-1.42-.79,3.17.2,6.77-.48,10.34-.33s8.23.23,11,.23,6-.08,9.66-.23,7.09-.32,10.26-.52a14.4,14.4,0,0,1,.23,1.64c.05.59.07,1,.07,1.34,0,1.39-.5,2.23-1.49,2.52a40.37,40.37,0,0,0-5,1,8.28,8.28,0,0,0-2.82,1.27,3,3,0,0,0-1.19,1.7,11.17,11.17,0,0,0-.23,2.46V54h40.16V22.36a8.51,8.51,0,0,0-.3-2.46A3.61,3.61,0,0,0,293,18.2a7.51,7.51,0,0,0-2.75-1.27,40.37,40.37,0,0,0-5-1c-1-.29-1.49-1.13-1.49-2.52V12.1a4.35,4.35,0,0,1,.3-1.64q4.76.3,10.18.52t9.74.23q4.17,0,9.52-.23t10.11-.52a14.51,14.51,0,0,1,.22,1.64c.05.59.08,1,.08,1.34,0,1.39-.5,2.23-1.49,2.52a40.37,40.37,0,0,0-5,1,8.44,8.44,0,0,0-2.83,1.27,3,3,0,0,0-1.19,1.7,11.89,11.89,0,0,0-.22,2.46Z"/><path d="M392.93,75.15H361.7L354,95.82a4.64,4.64,0,0,0-.6,1.63,8.92,8.92,0,0,0-.15,1.34,3.1,3.1,0,0,0,1.57,2.68c1,.69,3.14,1.29,6.32,1.78,1.38.2,2.08,1.14,2.08,2.83a13.16,13.16,0,0,1-.3,2.53c-2.68-.2-5.5-.37-8.48-.52s-5.9-.23-8.77-.23c-2,0-4.07,0-6.25.15s-4.61.3-7.28.6a2.93,2.93,0,0,1-.3-1.34v-1.19c0-1.88.64-2.87,1.93-3a26.49,26.49,0,0,0,6.62-1.94,7.34,7.34,0,0,0,3.2-3.57L379.4,12A3.8,3.8,0,0,1,383,9.42a14.87,14.87,0,0,1,1.49.08c.5.05,1,.12,1.64.22l35.84,88.33a6.07,6.07,0,0,0,3.42,3.34,21.15,21.15,0,0,0,5.5,1.57,2.65,2.65,0,0,1,2.23,3,13.72,13.72,0,0,1-.3,2.68c-3.17-.2-6.3-.37-9.37-.52s-6-.23-8.62-.23c-1.39,0-3.08,0-5.06.08s-4,.12-6.1.22-4.14.17-6.17.22-3.74.13-5.13.23a2.93,2.93,0,0,1-.29-1.34v-1.19a3.24,3.24,0,0,1,.52-2,2.1,2.1,0,0,1,1.11-.82,21.79,21.79,0,0,0,5.73-1.71,3.1,3.1,0,0,0,1.86-2.9,7.35,7.35,0,0,0-.45-2.23Zm-2.83-7.44L377.46,34.25,364.53,67.71Z"/><path d="M472.94,95.25q0,3.12,4,4.17t13.24,1h5.65a23,23,0,0,0,6.47-.82,12.12,12.12,0,0,0,4.83-2.75,20.24,20.24,0,0,0,3.79-5,55.21,55.21,0,0,0,3.35-7.36c.3-.8,1-1.19,2.23-1.19a4.6,4.6,0,0,1,1.78.44l2.09.89q-1.2,4.77-2.16,10.34T516.51,106c-.1,1.19.66,1.68.12,2a6,6,0,0,1-2.32.08c-.79,0-2.4,0-3.84-.08s-4.23.1-5.92,0-2.14.15-3.88.05-3.25-.15-4.53-.15H462.38c-2.88,0-6.17.08-9.89.23s-7.06.32-10,.52a3.52,3.52,0,0,1-.29-1.57v-1.41c0-1.49.49-2.28,1.48-2.38a34.14,34.14,0,0,0,8.11-2.23,4.24,4.24,0,0,0,2.45-4.16V22.39a8.51,8.51,0,0,0-.3-2.46,3.61,3.61,0,0,0-1.19-1.71A7.61,7.61,0,0,0,450,17a40.37,40.37,0,0,0-5-1c-1-.3-1.49-1.14-1.49-2.53V12.13a4.35,4.35,0,0,1,.3-1.64c3.17.2,6.55.37,10.11.52s6.74.22,9.52.22c1.39,0,3,0,4.76-.07l5.58-.15q2.89-.07,5.8-.22c1.93-.1,3.69-.2,5.27-.3a14.4,14.4,0,0,1,.23,1.64c.05.59.07,1,.07,1.33,0,1.39-.5,2.23-1.49,2.53q-6.39.9-8.55,2.31a4.87,4.87,0,0,0-2.15,4.38Z"/><path d="M594.83,14A4.37,4.37,0,0,1,596.76,12c.89-.5,3.07-.74,6.55-.74.79,0,2,0,3.49-.08l5-.15c1.79-.05,3.57-.12,5.35-.22s3.33-.2,4.61-.3A4,4,0,0,1,622,12v1.19c0,1.59-.54,2.53-1.63,2.82a46.67,46.67,0,0,0-4.69.9,7.49,7.49,0,0,0-2.6,1.11,3.25,3.25,0,0,0-1.19,1.56,6.58,6.58,0,0,0-.3,2.09c0,.19.08,2.08.23,5.65s.37,8,.66,13.23.6,11,.9,17.1.59,12,.89,17.47.54,10.29.74,14.35.35,6.55.45,7.44a6.83,6.83,0,0,0,.37,2.45,3.88,3.88,0,0,0,1.34,1.71,8.31,8.31,0,0,0,2.75,1.27,36.69,36.69,0,0,0,4.61,1c1.09.2,1.64,1.14,1.64,2.83a13.16,13.16,0,0,1-.3,2.53l-9.44-.52q-4.25-.23-9.6-.23-4.9,0-10.48.23t-9.29.52a13.16,13.16,0,0,1-.3-2.53,3.48,3.48,0,0,1,.52-2.23,1.41,1.41,0,0,1,1-.6q6.09-1,7.88-2.45A5.25,5.25,0,0,0,598,96.41c0-.29-.07-1.88-.22-4.76s-.3-6.44-.45-10.7-.35-8.87-.59-13.83-.5-9.62-.75-14-.44-8.13-.59-11.3-.27-5.11-.37-5.8L564.49,107a16,16,0,0,1-1.26,2,1.69,1.69,0,0,1-1.41.67h-.9a2.07,2.07,0,0,1-.89-.15l-34.5-82.68q-.15,1.93-.37,7.81t-.59,13.46q-.37,7.57-.75,16t-.67,15.54q-.3,7.14-.52,12c-.15,3.22-.22,5-.22,5.28a7.78,7.78,0,0,0,.3,2.3,3.46,3.46,0,0,0,1.19,1.71,7.38,7.38,0,0,0,2.67,1.27q1.78.52,4.91,1.11c1.09.2,1.64,1.14,1.64,2.83a10.62,10.62,0,0,1-.08,1.12c0,.44-.12.91-.22,1.41q-4-.3-7.44-.52t-6.84-.23q-3,0-7.43.23c-3,.15-5.86-.24-8.24,0-.2-.4-.09-.28-.09-.78v-1.19a3.56,3.56,0,0,1,.45-2.16,2,2,0,0,1,1.19-.67,21.67,21.67,0,0,0,6.69-2.38,5.18,5.18,0,0,0,2.38-4c0-.79.09-3.2.29-7.21s.45-8.78.75-14.28.59-11.35.89-17.54.57-11.95.82-17.26.44-9.74.59-13.3.23-5.46.23-5.65A4.11,4.11,0,0,0,515.42,18q-1.63-1.11-7.14-2c-1.09-.09-1.63-1-1.63-2.82V12a4,4,0,0,1,.29-1.49c1.29.1,3.08.2,5.36.3s4.61.17,7,.22l6.69.15c2.08,0,3.57.08,4.46.08a29.65,29.65,0,0,1,4.16.22A14.56,14.56,0,0,1,537,12a2.3,2.3,0,0,1,1.27.89c.24.4.47.8.67,1.19L566.57,80.8Z"/><rect x="362.76" y="55.37" width="38.91" height="7.44"/></g></g></svg>